<svg width="294" height="60" viewBox="0 0 294 60" fill="none" xmlns="http://www.w3.org/2000/svg">
<path d="M92.4923 31.5641C92.4829 31.5596 91.0418 30.8418 90.3136 30.5294C89.5724 30.2056 88.8222 29.9227 88.0666 29.6542C86.5484 29.1277 85.0212 28.6669 83.4717 28.3037C81.9241 27.9416 80.3651 27.6562 78.7996 27.4445C77.2361 27.2293 75.6646 27.0938 74.0931 27.0255C73.3081 26.9926 72.5231 26.9782 71.7367 26.9817C71.3748 26.9792 70.9382 26.9897 70.5589 26.9986C70.1786 27.0111 69.7943 27.029 69.4026 27.0539C67.848 27.156 66.296 27.3528 64.7444 27.6063C63.1958 27.8699 61.6468 28.1882 60.0992 28.5404C58.5516 28.899 57.0016 29.2831 55.4475 29.6701C53.893 30.0652 52.3319 30.4582 50.7619 30.8273C49.1915 31.2044 47.6101 31.5506 46.0152 31.853C44.4223 32.1643 42.8135 32.4089 41.1972 32.6012C39.5785 32.789 37.9507 32.9021 36.318 32.9319C34.6868 32.9544 33.0497 32.8991 31.4219 32.7237C29.7977 32.5474 28.1775 32.3038 26.5826 31.9177C24.9907 31.5327 23.4138 31.0754 21.8821 30.4801C20.347 29.8983 18.8447 29.2198 17.3942 28.4377C18.9373 28.9583 20.4883 29.4206 22.0504 29.7996C22.8309 29.9865 23.6139 30.1498 24.3979 30.3048C25.1838 30.4477 25.9688 30.5797 26.7563 30.6749C28.3323 30.8766 29.9112 31.0076 31.4881 31.0325C33.0651 31.0575 34.6411 31.0076 36.21 30.8796C37.779 30.7561 39.3415 30.5548 40.8991 30.2988C42.4576 30.0477 44.0077 29.7294 45.5577 29.3852C47.1053 29.0375 48.6529 28.6495 50.199 28.2554L54.8561 27.043C56.4152 26.638 57.9832 26.2459 59.5666 25.8972C60.3585 25.7209 61.156 25.5545 61.9559 25.3981C62.7558 25.2477 63.5602 25.1127 64.3691 24.9916C65.178 24.8716 65.9913 24.7719 66.8067 24.6907C67.6245 24.614 68.4469 24.5642 69.2707 24.5348C69.6803 24.5214 70.0945 24.5144 70.5161 24.5154C70.9392 24.5189 71.3046 24.5209 71.7436 24.5438C72.5615 24.5777 73.3793 24.632 74.1961 24.7067C75.8273 24.8586 77.4521 25.1027 79.0629 25.4345C79.8683 25.5988 80.6667 25.7956 81.4631 26.0018C82.2571 26.226 83.0481 26.4571 83.8296 26.7241C85.3961 27.2472 86.9382 27.8584 88.4305 28.5922C89.9248 29.3259 91.3773 30.1354 92.7442 31.1611L94.9772 32.8851L92.4923 31.5641Z" fill="#C38535"/>
<path d="M194.083 12.2973C190.274 10.9792 186.423 9.79215 182.566 8.61007C178.707 7.43048 174.806 6.37542 170.885 5.37665C166.959 4.4008 163.01 3.47227 159.014 2.74001C155.019 2.00376 150.994 1.37809 146.943 0.895894C142.888 0.422662 138.803 0.171101 134.712 0.0465668C130.62 -0.0734846 126.517 0.0475647 122.429 0.306597C118.339 0.576089 114.263 1.04035 110.219 1.67199C106.175 2.29915 102.162 3.09717 98.1905 4.03118C94.2093 4.94576 90.2873 6.05312 86.3878 7.21229C84.442 7.80408 82.4986 8.40334 80.5643 9.06686C78.6115 9.70298 76.7225 10.3755 74.831 11.048L72.0016 12.0353C71.0762 12.3635 70.1509 12.6893 69.2141 12.9772C67.3509 13.591 65.4663 14.1364 63.5738 14.6435C59.7877 15.6503 55.9454 16.4438 52.0722 16.9962C51.1016 17.1367 50.1329 17.2702 49.1603 17.3663C48.1876 17.4854 47.2145 17.5666 46.2393 17.6463C44.291 17.8226 42.3388 17.9193 40.384 17.9586C36.4765 18.0314 32.5615 17.8351 28.6948 17.311C26.7594 17.0575 24.843 16.6998 22.9445 16.2864C21.9967 16.0802 21.0574 15.8415 20.1301 15.581C19.2207 15.323 18.2475 15.0136 17.467 14.7118L15.8199 14.0741L3.29338 9.07035C0.871215 8.36498 0.285832 8.96026 0.722878 10.1931C0.718398 10.1877 0.714418 10.1822 0.710436 10.1762C0.710436 10.1762 10.7177 44.1448 78.3875 15.8231C81.6161 14.7431 84.7969 13.7424 88.0429 12.7755C91.8493 11.6567 95.6752 10.6211 99.5285 9.7254C101.447 9.24519 103.384 8.85814 105.315 8.4392C107.253 8.07507 109.188 7.68104 111.137 7.37967C115.025 6.70967 118.934 6.21153 122.857 5.88425C126.782 5.53207 130.718 5.32833 134.662 5.32584C138.604 5.29197 142.555 5.44489 146.503 5.69596C150.451 5.96894 154.399 6.38289 158.341 6.90843C162.278 7.46186 166.219 8.07905 170.152 8.77545C174.084 9.4853 178.003 10.2983 181.933 11.0973C189.778 12.7536 197.606 14.5887 205.47 16.3377C201.696 14.9339 197.903 13.5775 194.083 12.2973Z" fill="#C38535"/>
<path d="M91.586 20.4994C93.5114 19.0254 107.749 16.9492 115.752 18.4252C118.906 19.007 130.053 22.0173 139.307 23.3025C153.838 25.3219 169.975 25.4479 191.147 23.289C206.486 21.7243 220.199 20.5064 234.285 21.3443C252.025 22.3993 270.357 26.7147 293.278 37.7121C294.022 38.0698 268.719 27.2831 238.544 25.9635C218.271 25.0768 192.171 28.2375 174.252 29.9541C105.292 36.5569 89.8154 21.8559 91.586 20.4994Z" fill="#C38535"/>
<path d="M24.4396 48.0807C24.9034 49.2993 25.2959 50.3373 25.617 51.1938C25.9377 52.0502 26.1958 52.7786 26.3921 53.3788C26.5883 53.0613 26.8024 52.7393 27.0338 52.4129C27.2657 52.086 27.5289 51.7145 27.8232 51.2993C28.1171 50.8841 28.4561 50.4203 28.8396 49.9084C29.2227 49.3965 29.6732 48.7948 30.1905 48.1072L33.9622 43.0736C34.372 42.5082 34.8492 42.0527 35.3939 41.7096C35.937 41.3651 36.5842 41.1918 37.333 41.1918C38.0287 41.1918 38.6209 41.3906 39.112 41.7887C39.6026 42.1857 39.892 42.7992 39.9812 43.6301L41.7469 59.208H36.2363L35.6208 53.0352C35.5316 52.0281 35.4603 51.1447 35.4067 50.3854C35.3532 49.6267 35.318 48.8851 35.2997 48.1602C35.1035 48.4777 34.8943 48.8007 34.6713 49.1275C34.4483 49.4544 34.1986 49.8166 33.9226 50.2137C33.646 50.6112 33.3427 51.0392 33.0132 51.4986C32.6827 51.9584 32.3125 52.4792 31.9027 53.0617L28.7197 57.5128C28.3986 57.9545 28.0998 58.3034 27.8237 58.5591C27.5467 58.8158 27.2662 59.0146 26.9808 59.155C26.6954 59.2968 26.4099 59.3896 26.125 59.4337C25.8395 59.4774 25.5273 59.4995 25.1889 59.4995C24.8499 59.4995 24.5417 59.4774 24.2662 59.4337C23.9891 59.3891 23.7349 59.2968 23.5035 59.155C23.2716 59.0146 23.0619 58.8163 22.8741 58.5591C22.6873 58.3034 22.5134 57.955 22.3528 57.5128L20.7482 53.0357C20.5341 52.4355 20.3423 51.8961 20.1729 51.4195C20.0034 50.942 19.8562 50.5135 19.7318 50.1346C19.6069 49.7548 19.4949 49.4063 19.3973 49.0883C19.2987 48.7707 19.2055 48.4615 19.1163 48.1602C18.8487 48.8139 18.5365 49.5511 18.1797 50.3732C17.8224 51.1943 17.4399 52.0816 17.03 53.0357L14.2475 59.2085H8.81718L16.2 43.6306C16.6098 42.7997 17.1366 42.1862 17.7783 41.7892C18.4201 41.3911 19.0886 41.1923 19.7843 41.1923C20.4974 41.1923 21.0683 41.3607 21.4965 41.6964C21.9246 42.0321 22.2547 42.4905 22.4866 43.0741L24.4396 48.0807Z" fill="#930202"/>
<path d="M58.4747 41.1918C62.3604 41.1918 65.2707 41.7974 67.2056 43.0068C69.1395 44.2171 70.1065 46.1121 70.1065 48.6898C70.1065 52.3297 68.877 55.0399 66.417 56.8235C63.9565 58.6086 60.2219 59.4994 55.2122 59.4994C51.326 59.4994 48.4157 58.8908 46.4812 57.6711C44.5468 56.4534 43.5798 54.5545 43.5798 51.9758C43.5798 48.3374 44.8104 45.6301 47.2704 43.8544C49.7309 42.0796 53.4655 41.1918 58.4747 41.1918ZM56.0147 54.8892C57.8153 54.8892 59.2727 54.8102 60.3868 54.6517C61.5009 54.4922 62.3663 54.2011 62.9806 53.7776C63.5958 53.3535 64.0105 52.7748 64.224 52.0421C64.4375 51.3093 64.5445 50.3772 64.5445 49.2469C64.5445 48.5406 64.4152 47.962 64.1566 47.5109C63.8985 47.0613 63.4883 46.708 62.9266 46.4513C62.3653 46.1955 61.647 46.0228 60.7742 45.9344C59.9004 45.8466 58.8576 45.8019 57.6459 45.8019C55.8452 45.8019 54.3923 45.8824 53.2872 46.0405C52.182 46.2 51.3215 46.491 50.7068 46.9151C50.0915 47.3386 49.6774 47.9178 49.4634 48.6506C49.2489 49.3834 49.1419 50.3149 49.1419 51.4457C49.1419 52.1697 49.2756 52.7527 49.5431 53.194C49.8106 53.6352 50.2203 53.9847 50.7731 54.2404C51.326 54.4966 52.0339 54.6694 52.8993 54.7577C53.7642 54.8456 54.802 54.8892 56.0147 54.8892Z" fill="#930202"/>
<path d="M96.6324 41.1918L92.2053 45.9536H85.8572L83.5103 59.4994H77.9898L80.3095 45.9536H71.9352L76.3627 41.1918H96.6324V41.1918Z" fill="#930202"/>
<path d="M107.87 41.1918C111.756 41.1918 114.666 41.7974 116.601 43.0068C118.535 44.2171 119.502 46.1121 119.502 48.6898C119.502 52.3297 118.272 55.0399 115.812 56.8235C113.351 58.6086 109.617 59.4994 104.607 59.4994C100.721 59.4994 97.8108 58.8908 95.8768 57.6711C93.9423 56.4534 92.9753 54.5545 92.9753 51.9758C92.9753 48.3374 94.2054 45.6301 96.6654 43.8544C99.126 42.0796 102.86 41.1918 107.87 41.1918ZM105.409 54.8892C107.211 54.8892 108.668 54.8102 109.782 54.6517C110.896 54.4922 111.761 54.2011 112.375 53.7776C112.991 53.3535 113.405 52.7748 113.619 52.0421C113.833 51.3093 113.939 50.3772 113.939 49.2469C113.939 48.5406 113.81 47.962 113.552 47.5109C113.294 47.0613 112.884 46.708 112.322 46.4513C111.761 46.1955 111.042 46.0228 110.17 45.9344C109.296 45.8466 108.253 45.8019 107.041 45.8019C105.24 45.8019 103.788 45.8824 102.682 46.0405C101.577 46.2 100.716 46.491 100.102 46.9151C99.4866 47.3386 99.0725 47.9178 98.858 48.6506C98.6435 49.3834 98.537 50.3149 98.537 51.4457C98.537 52.1697 98.6712 52.7527 98.9387 53.194C99.2058 53.6352 99.6154 53.9847 100.168 54.2404C100.721 54.4966 101.43 54.6694 102.294 54.7577C103.159 54.8456 104.197 54.8892 105.409 54.8892Z" fill="#930202"/>
<path d="M146.838 59.4994H139.408L136.243 54.6555H127.714L126.883 59.4994H121.331L122.94 50.1405H138.55C139.015 50.1405 139.457 50.0853 139.877 49.9758C140.298 49.8663 140.664 49.7116 140.977 49.5104C141.29 49.3096 141.541 49.0587 141.729 48.7581C141.916 48.4574 142.01 48.1244 142.01 47.7594C142.01 47.1576 141.769 46.7059 141.285 46.4043C140.802 46.1036 140.133 45.9536 139.274 45.9536H123.665L128.117 41.1918H139.65C140.58 41.1918 141.531 41.2734 142.507 41.4371C143.481 41.6019 144.366 41.8979 145.162 42.3263C145.958 42.7562 146.606 43.3255 147.107 44.0373C147.607 44.748 147.857 45.6514 147.857 46.746C147.857 47.5677 147.719 48.352 147.442 49.1002C147.164 49.849 146.771 50.5233 146.262 51.1255C145.752 51.7273 145.139 52.2383 144.424 52.6575C143.709 53.0768 142.922 53.3683 142.064 53.5336C142.314 53.7708 142.596 54.0714 142.909 54.4365C143.222 54.802 143.629 55.3028 144.129 55.9411L146.838 59.4994Z" fill="#930202"/>
<path d="M167.027 48.4984C168.935 48.4984 170.384 48.8497 171.374 49.5514C172.363 50.2541 172.858 51.2888 172.858 52.6577C172.858 53.6427 172.701 54.5553 172.385 55.3939C172.07 56.2339 171.566 56.9584 170.875 57.5693C170.183 58.1807 169.291 58.6558 168.196 58.9934C167.102 59.3311 165.775 59.4994 164.217 59.4994H147.855L152.136 54.7926H165.451C166.187 54.7926 166.72 54.6648 167.053 54.4088C167.386 54.1533 167.553 53.7614 167.553 53.2326C167.553 52.5036 167 52.138 165.898 52.138H156.312C154.315 52.138 152.854 51.736 151.925 50.9329C150.997 50.1309 150.534 49.0637 150.534 47.7313C150.534 46.8015 150.691 45.9397 151.007 45.1457C151.322 44.3518 151.825 43.6582 152.517 43.0661C153.208 42.4729 154.097 42.0121 155.182 41.6835C156.267 41.355 157.581 41.1918 159.122 41.1918H174.381L170.074 45.9538H157.887C157.152 45.9538 156.618 46.0679 156.285 46.2951C155.952 46.5242 155.787 46.9115 155.787 47.4586C155.787 48.1521 156.347 48.4989 157.467 48.4989H167.027V48.4984Z" fill="#930202"/>
<path d="M199.077 48.9635C199.077 50.4413 198.745 51.8197 198.08 53.0958C197.414 54.3738 196.507 55.4866 195.357 56.4347C194.205 57.3832 192.867 58.131 191.339 58.6785C189.811 59.2255 188.185 59.4998 186.459 59.4998H174.379L176.374 48.0874H181.956L180.797 54.7931H187.267C188.13 54.7931 188.934 54.6745 189.68 54.4372C190.426 54.1999 191.074 53.8623 191.622 53.4248C192.17 52.9868 192.606 52.4626 192.93 51.8512C193.253 51.2403 193.415 50.57 193.415 49.839C193.415 49.2747 193.302 48.7536 193.077 48.2801C192.853 47.8056 192.539 47.3954 192.134 47.0486C191.729 46.7019 191.244 46.4322 190.678 46.241C190.112 46.0499 189.487 45.9541 188.804 45.9541H176.725L181.12 41.1921H189.64C191.06 41.1921 192.35 41.3833 193.509 41.7655C194.668 42.1493 195.662 42.6826 196.488 43.367C197.315 44.0514 197.954 44.8682 198.403 45.8167C198.852 46.7647 199.077 47.8147 199.077 48.9635Z" fill="#C38535"/>
<path d="M215.805 41.1921C219.69 41.1921 222.602 41.7978 224.536 43.0072C226.469 44.2175 227.437 46.1125 227.437 48.6902C227.437 52.3301 226.206 55.0403 223.747 56.8239C221.286 58.609 217.551 59.4998 212.543 59.4998C208.656 59.4998 205.746 58.8912 203.812 57.6715C201.877 56.4538 200.91 54.5549 200.91 51.9762C200.91 48.3378 202.141 45.6305 204.601 43.8548C207.061 42.08 210.795 41.1921 215.805 41.1921ZM213.345 54.8896C215.145 54.8896 216.603 54.8106 217.717 54.6521C218.83 54.4926 219.696 54.2015 220.31 53.7779C220.926 53.3539 221.34 52.7752 221.554 52.0424C221.768 51.3097 221.874 50.3776 221.874 49.2473C221.874 48.541 221.746 47.9623 221.487 47.5113C221.228 47.0617 220.818 46.7083 220.258 46.4516C219.696 46.1959 218.978 46.0232 218.106 45.9348C217.232 45.847 216.188 45.8023 214.976 45.8023C213.176 45.8023 211.723 45.8828 210.618 46.0408C209.512 46.2004 208.652 46.4914 208.038 46.9155C207.422 47.339 207.008 47.9182 206.794 48.651C206.579 49.3837 206.473 50.3153 206.473 51.4461C206.473 52.1701 206.607 52.7531 206.874 53.1944C207.142 53.6356 207.551 53.9851 208.104 54.2408C208.657 54.497 209.365 54.6697 210.23 54.7581C211.094 54.8459 212.132 54.8896 213.345 54.8896Z" fill="#C38535"/>
<path d="M250.687 59.4998H245.021L246.286 52.4392H235.31L234.072 59.4998H228.35L231.623 41.1921H237.317L236.136 47.6773H247.111L248.267 41.1921H253.962L250.687 59.4998Z" fill="#C38535"/>
<path d="M261.214 59.4998L265.446 54.8695H269.975C270.535 54.8695 271.105 54.8695 271.684 54.8695C272.263 54.8695 272.769 54.8875 273.202 54.9229C273.003 54.5997 272.776 54.1917 272.524 53.6975C272.27 53.2047 272.036 52.7419 271.82 52.3115L269.405 47.5461L258.773 59.4998H252.13L266.666 43.212C267.137 42.6919 267.697 42.225 268.348 41.8121C269 41.3996 269.767 41.1921 270.653 41.1921C271.503 41.1921 272.176 41.3862 272.674 41.7712C273.171 42.1577 273.574 42.637 273.88 43.212L282.316 59.4998H261.214V59.4998Z" fill="#C38535"/>
</svg>
