<svg width="31" height="31" viewBox="0 0 31 31" fill="none" xmlns="http://www.w3.org/2000/svg">
<path d="M25.2119 21.1729C27.0479 18.44 27.8008 15.1215 27.3238 11.8639C26.8469 8.60631 25.1743 5.64291 22.6319 3.55108C20.0895 1.45925 16.8595 0.388798 13.571 0.548282C10.2825 0.707767 7.17121 2.08576 4.84318 4.4138C2.51516 6.74184 1.13718 9.85318 0.977722 13.1416C0.818258 16.4301 1.88873 19.6602 3.98058 22.2025C6.07243 24.7449 9.03583 26.4175 12.2934 26.8944C15.551 27.3713 18.8695 26.6184 21.6024 24.7824L26.6124 29.7924C27.0911 30.271 27.7403 30.5399 28.4172 30.5399C29.0941 30.5399 29.7433 30.271 30.2219 29.7924C30.7006 29.3138 30.9695 28.6646 30.9695 27.9877C30.9695 27.3107 30.7006 26.6616 30.2219 26.1829L25.2119 21.1729ZM14.2247 23.9715C12.212 23.9715 10.2446 23.3746 8.57108 22.2565C6.89761 21.1383 5.59329 19.5489 4.82308 17.6895C4.05286 15.83 3.85134 13.7839 4.244 11.8099C4.63666 9.83587 5.60586 8.02263 7.02904 6.59946C8.45223 5.17628 10.2655 4.20709 12.2395 3.81444C14.2135 3.42179 16.2596 3.62331 18.1191 4.39354C19.9785 5.16376 21.5679 6.46808 22.686 8.14156C23.8042 9.81504 24.401 11.7825 24.401 13.7952C24.398 16.4932 23.3249 19.0798 21.4171 20.9876C19.5093 22.8953 16.9227 23.9684 14.2247 23.9715Z" fill="#7F92A3"/>
</svg>
