<?xml version="1.0" encoding="UTF-8"?><!DOCTYPE svg PUBLIC "-//W3C//DTD SVG 1.1//EN" "http://www.w3.org/Graphics/SVG/1.1/DTD/svg11.dtd"><svg xmlns="http://www.w3.org/2000/svg">

<symbol id="ads-pro-ad-extension" viewBox="-290 382 30 30">
<path fill="#ffffff" d=" M 0.00 0.00 L 400.00 0.00 L 400.00 400.00 L 0.00 400.00 L 0.00 0.00 Z" />
<path fill="#373737" d=" M 296.50 99.85 C 302.48 91.72 312.07 86.61 322.09 85.80 C 332.37 85.03 343.10 85.27 352.75 89.31 C 354.17 90.04 356.19 91.12 355.76 93.05 C 354.65 99.25 352.06 105.09 351.10 111.33 C 346.75 112.56 343.12 109.16 338.94 108.62 C 332.96 107.52 326.11 106.43 320.59 109.68 C 318.54 110.65 318.63 113.14 318.16 115.03 C 320.67 119.81 326.24 121.26 330.84 123.25 C 339.26 126.28 348.01 129.98 353.78 137.15 C 358.45 142.85 361.00 151.05 358.26 158.17 C 356.46 162.94 355.38 167.99 353.25 172.63 C 347.68 180.24 338.37 183.66 329.41 185.26 C 316.70 186.78 303.58 185.24 291.81 180.08 C 290.36 176.97 291.01 172.96 293.54 170.60 C 296.53 167.70 299.75 164.76 301.14 160.70 C 304.87 159.73 308.26 162.05 311.89 162.48 C 317.93 163.57 324.70 164.37 330.32 161.29 C 332.35 160.32 332.55 157.82 333.35 155.98 C 332.56 153.61 331.44 151.14 329.08 149.97 C 322.65 146.18 315.22 144.56 308.66 141.00 C 307.59 135.30 308.70 129.39 307.12 123.74 C 306.11 115.59 302.16 108.07 296.53 102.17 C 296.53 101.59 296.51 100.43 296.50 99.85 Z" />
<path fill="#373737" d=" M 217.73 88.81 C 230.67 86.58 243.90 86.43 256.99 86.93 C 270.91 87.46 285.34 92.49 294.44 103.48 C 302.81 113.17 304.92 126.62 304.03 139.04 C 303.35 150.62 299.20 162.47 290.66 170.62 C 283.17 178.67 272.34 182.54 261.75 184.39 C 254.36 185.92 246.74 185.99 239.23 185.61 C 238.23 184.27 237.42 182.80 236.99 181.19 C 230.80 160.79 224.34 140.47 218.17 120.06 C 216.76 115.84 217.50 111.34 217.34 106.98 C 217.48 100.92 216.96 94.84 217.73 88.81 Z" />
<path fill="#373737" d=" M 173.30 88.27 C 179.54 88.05 185.79 88.19 192.03 88.16 C 196.05 88.20 200.13 87.85 204.09 88.72 C 213.53 119.73 223.25 150.65 232.72 181.64 C 233.16 183.52 232.31 186.02 229.96 185.64 C 221.95 185.60 213.89 186.11 205.90 185.30 C 203.59 177.60 201.15 169.94 198.92 162.22 C 191.47 162.21 184.01 162.24 176.56 162.21 C 175.33 166.38 173.94 170.52 173.34 174.84 C 173.17 177.31 169.68 176.68 168.08 176.12 C 165.32 163.26 160.81 150.76 157.45 138.01 C 161.05 124.51 165.65 111.29 169.46 97.86 C 170.46 94.56 171.17 91.07 173.30 88.27 Z" />
<path fill="#ffffff" d=" M 302.06 100.87 C 308.49 93.57 318.46 90.31 327.99 90.48 C 335.63 90.21 343.36 91.11 350.53 93.84 C 349.27 97.81 348.11 101.81 347.15 105.86 C 339.73 103.20 331.65 101.30 323.78 102.92 C 318.93 104.06 313.57 107.44 313.27 112.90 C 312.54 117.44 315.80 121.39 319.49 123.54 C 327.45 128.42 337.13 129.78 344.66 135.47 C 350.52 139.24 354.47 146.06 354.44 153.06 C 353.23 157.77 351.36 162.30 350.00 166.97 C 348.51 173.32 341.75 176.22 336.25 178.35 C 323.14 182.27 308.73 181.19 296.01 176.34 C 297.91 172.07 302.26 169.63 304.63 165.65 C 310.95 168.17 317.90 169.10 324.67 168.43 C 329.32 167.73 334.40 165.89 336.78 161.52 C 339.14 157.05 338.27 151.02 334.36 147.68 C 328.44 142.58 320.57 140.99 313.58 137.90 C 313.92 124.82 311.41 110.67 302.06 100.87 Z" />
<path fill="#ffffff" d=" M 222.59 93.14 C 233.67 91.78 244.86 91.41 256.01 91.86 C 266.85 92.55 278.13 95.25 286.52 102.52 C 293.79 108.70 298.06 118.00 298.76 127.43 C 300.49 142.31 296.90 159.06 285.07 169.14 C 273.26 179.09 257.01 180.66 242.17 180.83 C 235.95 159.85 229.21 139.02 222.89 118.08 C 222.23 109.80 222.83 101.45 222.59 93.14 Z" />
<path fill="#ffffff" d=" M 176.19 93.19 C 184.18 93.11 192.17 93.18 200.16 93.16 C 208.85 122.42 218.30 151.48 227.05 180.74 C 221.29 180.67 215.53 180.71 209.77 180.70 C 207.59 173.04 204.90 165.51 203.06 157.75 C 196.43 156.66 189.69 157.45 183.01 157.21 C 179.70 157.42 176.14 156.63 173.00 157.86 C 171.38 160.42 170.83 163.48 170.38 166.43 C 169.10 156.66 165.13 147.49 162.77 137.95 C 166.93 122.94 171.89 108.17 176.19 93.19 Z" />
<path fill="#373737" d=" M 238.38 105.63 C 239.43 104.70 240.33 103.30 241.92 103.36 C 252.82 101.74 265.64 102.88 273.58 111.41 C 280.02 117.33 282.03 126.56 281.89 134.99 C 281.86 144.42 279.37 154.63 272.05 161.11 C 265.78 167.39 256.55 169.39 247.94 169.36 C 244.97 169.22 241.66 169.66 239.03 168.01 C 238.17 166.52 238.51 164.73 238.40 163.09 C 238.43 143.94 238.47 124.78 238.38 105.63 Z" />
<path fill="#373737" d=" M 175.87 140.75 C 179.26 128.88 182.51 116.98 184.96 104.88 C 185.76 104.69 187.36 104.31 188.16 104.13 C 188.88 104.93 189.60 105.73 190.32 106.53 C 192.63 119.27 196.99 131.52 200.31 144.02 C 199.36 145.12 198.70 146.96 196.91 146.56 C 189.85 146.50 182.77 146.85 175.73 146.29 C 175.33 144.44 175.17 142.55 175.87 140.75 Z" />
<path fill="#ffffff" d=" M 243.48 108.12 C 252.42 107.46 262.75 107.74 269.58 114.38 C 276.32 120.52 277.19 130.37 276.47 138.94 C 276.24 147.38 272.25 156.22 264.66 160.46 C 258.33 164.25 250.69 164.51 243.51 164.34 C 243.50 145.60 243.57 126.86 243.48 108.12 Z" />
<path fill="#ffffff" d=" M 181.01 141.52 C 183.06 132.58 186.54 123.97 187.59 114.82 C 187.81 121.39 190.51 127.50 192.11 133.79 C 192.76 136.45 193.58 139.08 194.68 141.60 C 190.12 141.40 185.57 141.48 181.01 141.52 Z" />
<path fill="#373737" d=" M 151.11 120.67 C 152.85 120.57 154.59 120.56 156.33 120.61 C 157.01 124.37 154.75 127.66 153.88 131.18 C 148.70 149.25 143.69 167.38 138.04 185.31 C 132.34 186.03 126.65 184.78 120.94 184.90 C 107.48 184.71 94.03 184.29 80.59 183.45 C 81.47 183.78 82.33 184.15 83.18 184.56 C 98.04 194.18 112.35 204.67 127.30 214.14 C 128.45 217.48 126.39 220.64 125.47 223.77 C 119.96 238.57 114.95 253.55 109.26 268.28 C 123.75 256.92 138.17 245.43 152.93 234.43 C 153.49 234.47 154.61 234.56 155.17 234.60 C 172.00 247.64 188.65 260.91 205.68 273.68 C 205.55 274.62 205.30 276.48 205.18 277.42 C 202.06 278.14 199.26 276.66 196.53 275.39 C 182.48 269.73 168.37 264.21 154.32 258.55 C 127.91 278.70 101.78 299.22 75.55 319.60 C 74.25 321.07 72.29 320.41 70.60 320.40 C 70.03 317.52 71.25 314.84 72.31 312.25 C 83.15 282.62 93.50 252.80 104.61 223.27 C 81.13 206.98 57.34 191.15 33.75 175.02 C 29.38 172.31 25.46 168.81 20.65 166.87 C 20.54 165.11 20.55 163.34 20.67 161.59 C 29.78 162.34 38.93 162.36 48.07 162.53 C 57.42 163.49 66.83 163.12 76.21 163.51 C 85.78 164.20 95.39 164.25 104.98 164.43 C 111.31 164.22 117.59 165.36 123.92 165.20 C 129.91 155.21 136.39 145.53 142.47 135.60 C 145.43 130.67 148.97 126.04 151.11 120.67 Z" />
<path fill="#ffffff" d=" M 141.32 147.06 C 143.17 143.88 145.56 140.92 146.48 137.30 C 147.35 141.27 144.32 144.48 143.55 148.19 C 140.63 158.94 137.23 169.55 134.34 180.30 C 129.23 180.13 124.12 180.06 119.03 179.52 C 109.36 179.36 99.70 179.25 90.04 178.87 C 83.98 178.52 77.89 177.98 71.82 178.56 C 71.68 179.51 71.38 181.40 71.23 182.35 C 88.18 194.07 105.29 205.59 122.39 217.11 C 116.32 233.81 110.33 250.54 104.25 267.24 C 103.35 270.61 100.98 273.72 101.65 277.37 C 105.36 278.53 107.97 275.47 110.65 273.48 C 125.01 262.27 139.39 251.08 153.82 239.96 C 165.44 248.78 176.62 258.22 188.60 266.56 C 187.67 266.57 186.64 266.79 185.84 266.20 L 185.31 265.75 C 177.18 261.60 168.30 258.90 159.91 255.24 C 157.28 254.30 154.05 252.02 151.43 254.21 C 126.97 273.28 102.45 292.30 77.94 311.33 C 82.39 300.62 85.68 289.48 89.99 278.72 C 95.65 262.50 101.63 246.40 107.41 230.22 C 108.51 226.98 110.67 223.63 109.38 220.12 C 89.54 206.88 69.89 193.36 50.13 179.99 C 43.58 175.87 37.57 170.82 30.62 167.39 C 39.71 167.94 48.84 167.49 57.91 168.40 C 68.92 168.82 79.96 168.47 90.94 169.47 C 101.96 169.77 113.02 169.60 124.02 170.50 C 126.09 170.75 127.44 168.75 128.54 167.31 C 132.82 160.58 136.99 153.77 141.32 147.06 Z" />
<path fill="#373737" d=" M 140.92 188.19 C 144.24 174.91 148.86 161.98 151.93 148.64 C 153.64 148.51 155.36 148.50 157.07 148.58 C 158.40 155.25 160.68 161.68 162.48 168.22 C 164.75 174.82 165.95 181.75 168.49 188.26 C 182.43 187.36 196.42 187.57 210.35 186.60 C 210.47 188.34 210.50 190.08 210.38 191.82 C 206.67 193.54 203.50 196.18 200.10 198.40 C 192.26 203.64 184.51 209.01 176.64 214.19 C 181.22 226.16 185.26 238.32 189.77 250.32 C 190.57 251.88 190.45 253.63 190.42 255.33 C 189.53 255.35 187.76 255.40 186.88 255.42 C 176.06 247.08 165.31 238.64 154.49 230.29 C 143.73 238.70 133.02 247.20 122.11 255.42 C 121.24 255.40 119.50 255.37 118.62 255.35 C 118.57 253.62 118.41 251.83 119.22 250.24 C 123.86 238.31 127.82 226.14 132.41 214.19 C 125.09 209.36 117.86 204.39 110.57 199.50 C 106.62 196.90 102.95 193.82 98.62 191.83 C 98.51 190.09 98.53 188.34 98.66 186.60 C 107.43 187.33 116.24 187.35 125.05 187.48 C 130.33 187.90 135.62 188.17 140.92 188.19 Z" />
<path fill="#ffffff" d=" M 154.43 157.56 C 156.52 168.04 160.23 178.13 162.84 188.50 C 163.26 190.45 164.26 192.17 165.60 193.64 C 177.32 192.61 189.10 193.02 200.83 192.27 C 190.67 197.83 181.75 205.43 171.69 211.15 C 170.40 215.22 173.13 218.86 174.22 222.62 C 177.40 230.42 179.40 238.71 183.22 246.24 C 174.22 239.38 165.44 232.22 156.35 225.50 C 154.37 223.93 152.25 225.74 150.67 226.94 C 142.44 233.46 134.07 239.78 125.82 246.28 C 129.56 238.52 131.90 230.17 134.98 222.14 C 135.91 218.53 138.57 214.97 137.26 211.13 C 127.45 205.31 118.43 198.22 108.65 192.34 C 120.21 192.95 131.82 192.64 143.36 193.65 C 144.33 192.47 145.49 191.34 145.78 189.76 C 148.24 180.89 150.93 172.09 153.49 163.24 C 154.01 161.39 154.29 159.47 154.43 157.56 Z" />
<path fill="#373737" d=" M 218.23 189.38 C 219.56 188.26 221.34 188.34 222.97 188.33 C 263.29 188.40 303.61 188.29 343.92 188.38 C 345.77 187.97 346.48 189.82 347.29 191.07 C 340.54 212.92 333.18 234.59 326.20 256.38 C 325.17 259.20 324.72 262.36 322.62 264.65 C 281.27 264.77 239.92 264.84 198.57 264.62 C 198.13 264.13 197.24 263.14 196.80 262.65 C 192.50 248.40 187.88 234.24 183.38 220.04 C 182.66 218.39 183.24 216.70 183.83 215.12 C 195.67 207.08 206.71 197.88 218.23 189.38 Z" />
<path fill="#ffffff" d=" M 220.19 194.15 C 221.22 193.27 222.69 193.63 223.93 193.51 C 263.27 193.54 302.61 193.60 341.95 193.48 C 341.65 193.72 341.05 194.20 340.75 194.44 C 334.17 216.31 326.58 237.90 319.86 259.74 C 280.30 259.73 240.75 259.72 201.19 259.74 C 197.05 245.91 192.65 232.16 188.18 218.43 C 198.90 210.41 209.54 202.27 220.19 194.15 Z" />
<path fill="#373737" d=" M 291.53 209.12 C 297.94 207.90 304.50 212.26 306.50 218.34 C 309.38 227.25 306.04 237.90 298.38 243.35 C 292.55 247.52 283.52 246.89 279.19 240.85 C 271.29 230.00 277.90 211.36 291.53 209.12 Z" />
<path fill="#373737" d=" M 215.77 210.00 C 221.25 210.36 226.96 209.17 232.28 210.78 C 238.73 213.01 239.16 222.29 234.51 226.50 C 230.15 230.43 223.94 231.18 218.30 231.04 C 217.89 235.68 217.58 240.34 217.57 245.00 C 215.83 245.00 214.09 244.99 212.36 244.98 C 213.90 233.37 215.62 221.73 215.77 210.00 Z" />
<path fill="#373737" d=" M 243.38 244.98 C 244.80 233.35 246.55 221.73 246.76 210.00 C 253.28 210.61 261.48 207.98 266.48 213.51 C 270.18 218.79 266.37 225.96 260.73 227.88 C 266.72 231.37 267.06 239.06 269.09 245.00 C 267.46 244.99 265.84 245.00 264.22 245.00 C 263.18 240.62 262.49 235.94 259.90 232.15 C 257.29 229.13 252.84 230.20 249.33 229.99 C 248.82 234.98 248.37 239.98 248.37 245.00 C 246.70 245.00 245.03 244.99 243.38 244.98 Z" />
<path fill="#ffffff" d=" M 289.42 212.55 C 292.55 211.36 296.27 211.92 298.73 214.25 C 301.62 216.55 302.81 220.31 302.86 223.90 C 303.15 229.32 301.63 234.91 298.25 239.22 C 295.35 242.99 289.41 244.44 285.48 241.40 C 280.66 238.01 279.92 231.39 280.82 225.99 C 281.68 220.68 284.19 214.83 289.42 212.55 Z" />
<path fill="#ffffff" d=" M 220.11 213.33 C 223.58 213.01 227.42 212.36 230.58 214.23 C 234.75 216.97 233.72 224.20 229.38 226.26 C 226.11 228.11 222.24 228.03 218.60 228.04 C 219.13 223.14 219.49 218.22 220.11 213.33 Z" />
<path fill="#ffffff" d=" M 250.86 213.40 C 254.39 212.89 258.45 212.32 261.57 214.50 C 264.40 216.97 263.77 221.74 261.41 224.33 C 258.26 227.31 253.64 227.03 249.62 227.04 C 250.10 222.50 250.55 217.95 250.86 213.40 Z" />
</symbol>

<symbol id="ads-pro-ad-space" viewBox="-290 382 30 30">
<path fill="#ffffff" d=" M 0.00 0.00 L 400.00 0.00 L 400.00 400.00 L 0.00 400.00 L 0.00 0.00 Z" />
<path fill="#373737" d=" M 296.50 99.85 C 302.48 91.72 312.07 86.61 322.09 85.80 C 332.37 85.03 343.10 85.27 352.75 89.31 C 354.17 90.04 356.19 91.12 355.76 93.05 C 354.65 99.25 352.06 105.09 351.10 111.33 C 346.75 112.56 343.12 109.16 338.94 108.62 C 332.96 107.52 326.11 106.43 320.59 109.68 C 318.54 110.65 318.63 113.14 318.16 115.03 C 320.67 119.81 326.24 121.26 330.84 123.25 C 339.26 126.28 348.01 129.98 353.78 137.15 C 358.45 142.85 361.00 151.05 358.26 158.17 C 356.46 162.94 355.38 167.99 353.25 172.63 C 347.68 180.24 338.37 183.66 329.41 185.26 C 316.70 186.78 303.58 185.24 291.81 180.08 C 290.36 176.97 291.01 172.96 293.54 170.60 C 296.53 167.70 299.75 164.76 301.14 160.70 C 304.87 159.73 308.26 162.05 311.89 162.48 C 317.93 163.57 324.70 164.37 330.32 161.29 C 332.35 160.32 332.55 157.82 333.35 155.98 C 332.56 153.61 331.44 151.14 329.08 149.97 C 322.65 146.18 315.22 144.56 308.66 141.00 C 307.59 135.30 308.70 129.39 307.12 123.74 C 306.11 115.59 302.16 108.07 296.53 102.17 C 296.53 101.59 296.51 100.43 296.50 99.85 Z" />
<path fill="#373737" d=" M 217.73 88.81 C 230.67 86.58 243.90 86.43 256.99 86.93 C 270.91 87.46 285.34 92.49 294.44 103.48 C 302.81 113.17 304.92 126.62 304.03 139.04 C 303.35 150.62 299.20 162.47 290.66 170.62 C 283.17 178.67 272.34 182.54 261.75 184.39 C 254.36 185.92 246.74 185.99 239.23 185.61 C 238.23 184.27 237.42 182.80 236.99 181.19 C 230.80 160.79 224.34 140.47 218.17 120.06 C 216.76 115.84 217.50 111.34 217.34 106.98 C 217.48 100.92 216.96 94.84 217.73 88.81 Z" />
<path fill="#373737" d=" M 173.30 88.27 C 179.54 88.05 185.79 88.19 192.03 88.16 C 196.05 88.20 200.13 87.85 204.09 88.72 C 213.53 119.73 223.25 150.65 232.72 181.64 C 233.16 183.52 232.31 186.02 229.96 185.64 C 221.95 185.60 213.89 186.11 205.90 185.30 C 203.59 177.60 201.15 169.94 198.92 162.22 C 191.47 162.21 184.01 162.24 176.56 162.21 C 175.33 166.38 173.94 170.52 173.34 174.84 C 173.17 177.31 169.68 176.68 168.08 176.12 C 165.32 163.26 160.81 150.76 157.45 138.01 C 161.05 124.51 165.65 111.29 169.46 97.86 C 170.46 94.56 171.17 91.07 173.30 88.27 Z" />
<path fill="#ffffff" d=" M 302.06 100.87 C 308.49 93.57 318.46 90.31 327.99 90.48 C 335.63 90.21 343.36 91.11 350.53 93.84 C 349.27 97.81 348.11 101.81 347.15 105.86 C 339.73 103.20 331.65 101.30 323.78 102.92 C 318.93 104.06 313.57 107.44 313.27 112.90 C 312.54 117.44 315.80 121.39 319.49 123.54 C 327.45 128.42 337.13 129.78 344.66 135.47 C 350.52 139.24 354.47 146.06 354.44 153.06 C 353.23 157.77 351.36 162.30 350.00 166.97 C 348.51 173.32 341.75 176.22 336.25 178.35 C 323.14 182.27 308.73 181.19 296.01 176.34 C 297.91 172.07 302.26 169.63 304.63 165.65 C 310.95 168.17 317.90 169.10 324.67 168.43 C 329.32 167.73 334.40 165.89 336.78 161.52 C 339.14 157.05 338.27 151.02 334.36 147.68 C 328.44 142.58 320.57 140.99 313.58 137.90 C 313.92 124.82 311.41 110.67 302.06 100.87 Z" />
<path fill="#ffffff" d=" M 222.59 93.14 C 233.67 91.78 244.86 91.41 256.01 91.86 C 266.85 92.55 278.13 95.25 286.52 102.52 C 293.79 108.70 298.06 118.00 298.76 127.43 C 300.49 142.31 296.90 159.06 285.07 169.14 C 273.26 179.09 257.01 180.66 242.17 180.83 C 235.95 159.85 229.21 139.02 222.89 118.08 C 222.23 109.80 222.83 101.45 222.59 93.14 Z" />
<path fill="#ffffff" d=" M 176.19 93.19 C 184.18 93.11 192.17 93.18 200.16 93.16 C 208.85 122.42 218.30 151.48 227.05 180.74 C 221.29 180.67 215.53 180.71 209.77 180.70 C 207.59 173.04 204.90 165.51 203.06 157.75 C 196.43 156.66 189.69 157.45 183.01 157.21 C 179.70 157.42 176.14 156.63 173.00 157.86 C 171.38 160.42 170.83 163.48 170.38 166.43 C 169.10 156.66 165.13 147.49 162.77 137.95 C 166.93 122.94 171.89 108.17 176.19 93.19 Z" />
<path fill="#373737" d=" M 238.38 105.63 C 239.43 104.70 240.33 103.30 241.92 103.36 C 252.82 101.74 265.64 102.88 273.58 111.41 C 280.02 117.33 282.03 126.56 281.89 134.99 C 281.86 144.42 279.37 154.63 272.05 161.11 C 265.78 167.39 256.55 169.39 247.94 169.36 C 244.97 169.22 241.66 169.66 239.03 168.01 C 238.17 166.52 238.51 164.73 238.40 163.09 C 238.43 143.94 238.47 124.78 238.38 105.63 Z" />
<path fill="#373737" d=" M 175.87 140.75 C 179.26 128.88 182.51 116.98 184.96 104.88 C 185.76 104.69 187.36 104.31 188.16 104.13 C 188.88 104.93 189.60 105.73 190.32 106.53 C 192.63 119.27 196.99 131.52 200.31 144.02 C 199.36 145.12 198.70 146.96 196.91 146.56 C 189.85 146.50 182.77 146.85 175.73 146.29 C 175.33 144.44 175.17 142.55 175.87 140.75 Z" />
<path fill="#ffffff" d=" M 243.48 108.12 C 252.42 107.46 262.75 107.74 269.58 114.38 C 276.32 120.52 277.19 130.37 276.47 138.94 C 276.24 147.38 272.25 156.22 264.66 160.46 C 258.33 164.25 250.69 164.51 243.51 164.34 C 243.50 145.60 243.57 126.86 243.48 108.12 Z" />
<path fill="#ffffff" d=" M 181.01 141.52 C 183.06 132.58 186.54 123.97 187.59 114.82 C 187.81 121.39 190.51 127.50 192.11 133.79 C 192.76 136.45 193.58 139.08 194.68 141.60 C 190.12 141.40 185.57 141.48 181.01 141.52 Z" />
<path fill="#373737" d=" M 151.11 120.67 C 152.85 120.57 154.59 120.56 156.33 120.61 C 157.01 124.37 154.75 127.66 153.88 131.18 C 148.70 149.25 143.69 167.38 138.04 185.31 C 132.34 186.03 126.65 184.78 120.94 184.90 C 107.48 184.71 94.03 184.29 80.59 183.45 C 81.47 183.78 82.33 184.15 83.18 184.56 C 98.04 194.18 112.35 204.67 127.30 214.14 C 128.45 217.48 126.39 220.64 125.47 223.77 C 119.96 238.57 114.95 253.55 109.26 268.28 C 123.75 256.92 138.17 245.43 152.93 234.43 C 153.49 234.47 154.61 234.56 155.17 234.60 C 172.00 247.64 188.65 260.91 205.68 273.68 C 205.55 274.62 205.30 276.48 205.18 277.42 C 202.06 278.14 199.26 276.66 196.53 275.39 C 182.48 269.73 168.37 264.21 154.32 258.55 C 127.91 278.70 101.78 299.22 75.55 319.60 C 74.25 321.07 72.29 320.41 70.60 320.40 C 70.03 317.52 71.25 314.84 72.31 312.25 C 83.15 282.62 93.50 252.80 104.61 223.27 C 81.13 206.98 57.34 191.15 33.75 175.02 C 29.38 172.31 25.46 168.81 20.65 166.87 C 20.54 165.11 20.55 163.34 20.67 161.59 C 29.78 162.34 38.93 162.36 48.07 162.53 C 57.42 163.49 66.83 163.12 76.21 163.51 C 85.78 164.20 95.39 164.25 104.98 164.43 C 111.31 164.22 117.59 165.36 123.92 165.20 C 129.91 155.21 136.39 145.53 142.47 135.60 C 145.43 130.67 148.97 126.04 151.11 120.67 Z" />
<path fill="#ffffff" d=" M 141.32 147.06 C 143.17 143.88 145.56 140.92 146.48 137.30 C 147.35 141.27 144.32 144.48 143.55 148.19 C 140.63 158.94 137.23 169.55 134.34 180.30 C 129.23 180.13 124.12 180.06 119.03 179.52 C 109.36 179.36 99.70 179.25 90.04 178.87 C 83.98 178.52 77.89 177.98 71.82 178.56 C 71.68 179.51 71.38 181.40 71.23 182.35 C 88.18 194.07 105.29 205.59 122.39 217.11 C 116.32 233.81 110.33 250.54 104.25 267.24 C 103.35 270.61 100.98 273.72 101.65 277.37 C 105.36 278.53 107.97 275.47 110.65 273.48 C 125.01 262.27 139.39 251.08 153.82 239.96 C 165.44 248.78 176.62 258.22 188.60 266.56 C 187.67 266.57 186.64 266.79 185.84 266.20 L 185.31 265.75 C 177.18 261.60 168.30 258.90 159.91 255.24 C 157.28 254.30 154.05 252.02 151.43 254.21 C 126.97 273.28 102.45 292.30 77.94 311.33 C 82.39 300.62 85.68 289.48 89.99 278.72 C 95.65 262.50 101.63 246.40 107.41 230.22 C 108.51 226.98 110.67 223.63 109.38 220.12 C 89.54 206.88 69.89 193.36 50.13 179.99 C 43.58 175.87 37.57 170.82 30.62 167.39 C 39.71 167.94 48.84 167.49 57.91 168.40 C 68.92 168.82 79.96 168.47 90.94 169.47 C 101.96 169.77 113.02 169.60 124.02 170.50 C 126.09 170.75 127.44 168.75 128.54 167.31 C 132.82 160.58 136.99 153.77 141.32 147.06 Z" />
<path fill="#373737" d=" M 140.92 188.19 C 144.24 174.91 148.86 161.98 151.93 148.64 C 153.64 148.51 155.36 148.50 157.07 148.58 C 158.40 155.25 160.68 161.68 162.48 168.22 C 164.75 174.82 165.95 181.75 168.49 188.26 C 182.43 187.36 196.42 187.57 210.35 186.60 C 210.47 188.34 210.50 190.08 210.38 191.82 C 206.67 193.54 203.50 196.18 200.10 198.40 C 192.26 203.64 184.51 209.01 176.64 214.19 C 181.22 226.16 185.26 238.32 189.77 250.32 C 190.57 251.88 190.45 253.63 190.42 255.33 C 189.53 255.35 187.76 255.40 186.88 255.42 C 176.06 247.08 165.31 238.64 154.49 230.29 C 143.73 238.70 133.02 247.20 122.11 255.42 C 121.24 255.40 119.50 255.37 118.62 255.35 C 118.57 253.62 118.41 251.83 119.22 250.24 C 123.86 238.31 127.82 226.14 132.41 214.19 C 125.09 209.36 117.86 204.39 110.57 199.50 C 106.62 196.90 102.95 193.82 98.62 191.83 C 98.51 190.09 98.53 188.34 98.66 186.60 C 107.43 187.33 116.24 187.35 125.05 187.48 C 130.33 187.90 135.62 188.17 140.92 188.19 Z" />
<path fill="#ffffff" d=" M 154.43 157.56 C 156.52 168.04 160.23 178.13 162.84 188.50 C 163.26 190.45 164.26 192.17 165.60 193.64 C 177.32 192.61 189.10 193.02 200.83 192.27 C 190.67 197.83 181.75 205.43 171.69 211.15 C 170.40 215.22 173.13 218.86 174.22 222.62 C 177.40 230.42 179.40 238.71 183.22 246.24 C 174.22 239.38 165.44 232.22 156.35 225.50 C 154.37 223.93 152.25 225.74 150.67 226.94 C 142.44 233.46 134.07 239.78 125.82 246.28 C 129.56 238.52 131.90 230.17 134.98 222.14 C 135.91 218.53 138.57 214.97 137.26 211.13 C 127.45 205.31 118.43 198.22 108.65 192.34 C 120.21 192.95 131.82 192.64 143.36 193.65 C 144.33 192.47 145.49 191.34 145.78 189.76 C 148.24 180.89 150.93 172.09 153.49 163.24 C 154.01 161.39 154.29 159.47 154.43 157.56 Z" />
<path fill="#373737" d=" M 218.23 189.38 C 219.56 188.26 221.34 188.34 222.97 188.33 C 263.29 188.40 303.61 188.29 343.92 188.38 C 345.77 187.97 346.48 189.82 347.29 191.07 C 340.54 212.92 333.18 234.59 326.20 256.38 C 325.17 259.20 324.72 262.36 322.62 264.65 C 281.27 264.77 239.92 264.84 198.57 264.62 C 198.13 264.13 197.24 263.14 196.80 262.65 C 192.50 248.40 187.88 234.24 183.38 220.04 C 182.66 218.39 183.24 216.70 183.83 215.12 C 195.67 207.08 206.71 197.88 218.23 189.38 Z" />
<path fill="#ffffff" d=" M 220.19 194.15 C 221.22 193.27 222.69 193.63 223.93 193.51 C 263.27 193.54 302.61 193.60 341.95 193.48 C 341.65 193.72 341.05 194.20 340.75 194.44 C 334.17 216.31 326.58 237.90 319.86 259.74 C 280.30 259.73 240.75 259.72 201.19 259.74 C 197.05 245.91 192.65 232.16 188.18 218.43 C 198.90 210.41 209.54 202.27 220.19 194.15 Z" />
<path fill="#373737" d=" M 291.53 209.12 C 297.94 207.90 304.50 212.26 306.50 218.34 C 309.38 227.25 306.04 237.90 298.38 243.35 C 292.55 247.52 283.52 246.89 279.19 240.85 C 271.29 230.00 277.90 211.36 291.53 209.12 Z" />
<path fill="#373737" d=" M 215.77 210.00 C 221.25 210.36 226.96 209.17 232.28 210.78 C 238.73 213.01 239.16 222.29 234.51 226.50 C 230.15 230.43 223.94 231.18 218.30 231.04 C 217.89 235.68 217.58 240.34 217.57 245.00 C 215.83 245.00 214.09 244.99 212.36 244.98 C 213.90 233.37 215.62 221.73 215.77 210.00 Z" />
<path fill="#373737" d=" M 243.38 244.98 C 244.80 233.35 246.55 221.73 246.76 210.00 C 253.28 210.61 261.48 207.98 266.48 213.51 C 270.18 218.79 266.37 225.96 260.73 227.88 C 266.72 231.37 267.06 239.06 269.09 245.00 C 267.46 244.99 265.84 245.00 264.22 245.00 C 263.18 240.62 262.49 235.94 259.90 232.15 C 257.29 229.13 252.84 230.20 249.33 229.99 C 248.82 234.98 248.37 239.98 248.37 245.00 C 246.70 245.00 245.03 244.99 243.38 244.98 Z" />
<path fill="#ffffff" d=" M 289.42 212.55 C 292.55 211.36 296.27 211.92 298.73 214.25 C 301.62 216.55 302.81 220.31 302.86 223.90 C 303.15 229.32 301.63 234.91 298.25 239.22 C 295.35 242.99 289.41 244.44 285.48 241.40 C 280.66 238.01 279.92 231.39 280.82 225.99 C 281.68 220.68 284.19 214.83 289.42 212.55 Z" />
<path fill="#ffffff" d=" M 220.11 213.33 C 223.58 213.01 227.42 212.36 230.58 214.23 C 234.75 216.97 233.72 224.20 229.38 226.26 C 226.11 228.11 222.24 228.03 218.60 228.04 C 219.13 223.14 219.49 218.22 220.11 213.33 Z" />
<path fill="#ffffff" d=" M 250.86 213.40 C 254.39 212.89 258.45 212.32 261.57 214.50 C 264.40 216.97 263.77 221.74 261.41 224.33 C 258.26 227.31 253.64 227.03 249.62 227.04 C 250.10 222.50 250.55 217.95 250.86 213.40 Z" />
</symbol>

<symbol id="default" viewBox="-290 382 30 30">
  <path d="M-262.1,403.9C-262.1,403.8-262.1,403.8-262.1,403.9c0.1-0.1,0.1-0.1,0.1-0.2c0,0,0,0,0-0.1v-13.2l0,0c0,0,0,0,0-0.1c0,0,0,0,0-0.1c0,0,0,0,0-0.1l0,0l0,0c0,0,0,0,0-0.1l0,0c0,0,0,0-0.1,0l0,0l-12.2-6.6l0,0h-0.1h-0.1h-0.1h-0.1l0,0l-13,6.6l0,0c0,0,0,0-0.1,0l0,0c0,0,0,0,0,0.1l0,0l0,0l0,0v0.1v0.1l0,0v13.2c0,0,0,0,0,0.1v0.1v0.1c0,0,0,0.1,0.1,0.1c0,0,0.1,0,0.1,0.1c0,0,0,0,0.1,0l12.9,6.6l0,0c0.1,0,0.1,0.1,0.2,0.1l0,0c0.1,0,0.2,0,0.2-0.1l0,0l11.9-6.6l0,0C-262.2,404-262.2,404-262.1,403.9C-262.2,403.9-262.2,403.9-262.1,403.9z M-274.5,384.4l10.9,6l-10.9,6l-11.8-6L-274.5,384.4z M-286.9,391.2l11.9,6.1v12.1l-11.9-6.1V391.2z M-274,397.3l10.9-6.1v12.1l-10.9,6.1V397.3z"/>
</symbol>

</svg>